<svg width="20" height="20" viewBox="0 0 20 20" fill="none" xmlns="http://www.w3.org/2000/svg">
<path d="M5.83329 7.49996C6.38583 7.49996 6.91573 7.28047 7.30643 6.88976C7.69713 6.49906 7.91663 5.96916 7.91663 5.41663C7.91663 4.86409 7.69713 4.33419 7.30643 3.94349C6.91573 3.55279 6.38583 3.33329 5.83329 3.33329C5.28076 3.33329 4.75085 3.55279 4.36015 3.94349C3.96945 4.33419 3.74996 4.86409 3.74996 5.41663C3.74996 5.96916 3.96945 6.49906 4.36015 6.88976C4.75085 7.28047 5.28076 7.49996 5.83329 7.49996ZM5.83329 9.16663C5.34084 9.16663 4.8532 9.06963 4.39823 8.88117C3.94326 8.69272 3.52986 8.4165 3.18164 8.06828C2.83342 7.72006 2.5572 7.30666 2.36874 6.85169C2.18029 6.39672 2.08329 5.90908 2.08329 5.41663C2.08329 4.92417 2.18029 4.43653 2.36874 3.98156C2.5572 3.52659 2.83342 3.1132 3.18164 2.76498C3.52986 2.41676 3.94326 2.14053 4.39823 1.95208C4.8532 1.76362 5.34084 1.66663 5.83329 1.66663C6.82785 1.66663 7.78168 2.06171 8.48494 2.76498C9.1882 3.46824 9.58329 4.42206 9.58329 5.41663C9.58329 6.41119 9.1882 7.36501 8.48494 8.06828C7.78168 8.77154 6.82785 9.16663 5.83329 9.16663ZM14.5833 10.8333C15.0253 10.8333 15.4492 10.6577 15.7618 10.3451C16.0744 10.0326 16.25 9.60865 16.25 9.16663C16.25 8.7246 16.0744 8.30068 15.7618 7.98811C15.4492 7.67555 15.0253 7.49996 14.5833 7.49996C14.1413 7.49996 13.7173 7.67555 13.4048 7.98811C13.0922 8.30068 12.9166 8.7246 12.9166 9.16663C12.9166 9.60865 13.0922 10.0326 13.4048 10.3451C13.7173 10.6577 14.1413 10.8333 14.5833 10.8333ZM14.5833 12.5C13.6992 12.5 12.8514 12.1488 12.2263 11.5236C11.6011 10.8985 11.25 10.0507 11.25 9.16663C11.25 8.28257 11.6011 7.43472 12.2263 6.8096C12.8514 6.18448 13.6992 5.83329 14.5833 5.83329C15.4673 5.83329 16.3152 6.18448 16.9403 6.8096C17.5654 7.43472 17.9166 8.28257 17.9166 9.16663C17.9166 10.0507 17.5654 10.8985 16.9403 11.5236C16.3152 12.1488 15.4673 12.5 14.5833 12.5ZM16.6666 17.5V17.0833C16.6666 16.5308 16.4471 16.0009 16.0564 15.6102C15.6657 15.2195 15.1358 15 14.5833 15C14.0308 15 13.5009 15.2195 13.1102 15.6102C12.7195 16.0009 12.5 16.5308 12.5 17.0833V17.5H10.8333V17.0833C10.8333 16.5908 10.9303 16.1032 11.1187 15.6482C11.3072 15.1933 11.5834 14.7799 11.9316 14.4316C12.2799 14.0834 12.6933 13.8072 13.1482 13.6187C13.6032 13.4303 14.0908 13.3333 14.5833 13.3333C15.0757 13.3333 15.5634 13.4303 16.0184 13.6187C16.4733 13.8072 16.8867 14.0834 17.2349 14.4316C17.5832 14.7799 17.8594 15.1933 18.0478 15.6482C18.2363 16.1032 18.3333 16.5908 18.3333 17.0833V17.5H16.6666ZM8.33329 17.5V14.1666C8.33329 13.8383 8.26863 13.5132 8.14299 13.2099C8.01735 12.9066 7.83321 12.631 7.60106 12.3989C7.36891 12.1667 7.09332 11.9826 6.79 11.8569C6.48669 11.7313 6.1616 11.6666 5.83329 11.6666C5.50499 11.6666 5.1799 11.7313 4.87658 11.8569C4.57327 11.9826 4.29767 12.1667 4.06553 12.3989C3.83338 12.631 3.64923 12.9066 3.52359 13.2099C3.39796 13.5132 3.33329 13.8383 3.33329 14.1666V17.5H1.66663V14.1666C1.66663 13.0616 2.10561 12.0017 2.88701 11.2203C3.66842 10.4389 4.72822 9.99996 5.83329 9.99996C6.93836 9.99996 7.99817 10.4389 8.77957 11.2203C9.56097 12.0017 9.99996 13.0616 9.99996 14.1666V17.5H8.33329Z" fill="black"/>
</svg>
