<svg width="48" height="48" viewBox="0 0 48 48" fill="none" xmlns="http://www.w3.org/2000/svg">
<path d="M44.1375 39.375C41.5077 34.8406 37.4251 31.3261 32.55 29.4C34.9427 27.6055 36.7101 25.1037 37.6019 22.2489C38.4936 19.3941 38.4646 16.3311 37.5188 13.4938C36.573 10.6564 34.7584 8.18857 32.3322 6.4398C29.9059 4.69103 26.9909 3.75 24 3.75C21.0092 3.75 18.0942 4.69103 15.6679 6.4398C13.2416 8.18857 11.4271 10.6564 10.4813 13.4938C9.53552 16.3311 9.50645 19.3941 10.3982 22.2489C11.29 25.1037 13.0574 27.6055 15.45 29.4C10.575 31.3261 6.49232 34.8406 3.86253 39.375C3.56417 39.8922 3.48346 40.5067 3.63818 41.0834C3.7929 41.66 4.17036 42.1516 4.68753 42.45C5.20471 42.7484 5.81922 42.8291 6.3959 42.6744C6.97257 42.5196 7.46417 42.1422 7.76254 41.625C9.40826 38.7749 11.7752 36.4081 14.6254 34.7626C17.4757 33.1171 20.7089 32.2508 24 32.2508C27.2912 32.2508 30.5244 33.1171 33.3746 34.7626C36.2249 36.4081 38.5918 38.7749 40.2375 41.625C40.4366 41.966 40.7212 42.2491 41.0632 42.4464C41.4051 42.6437 41.7927 42.7484 42.1875 42.75C42.5827 42.7532 42.9714 42.6495 43.3125 42.45C43.5687 42.3024 43.7933 42.1057 43.9735 41.8712C44.1536 41.6368 44.2858 41.3691 44.3624 41.0835C44.439 40.7979 44.4586 40.5 44.42 40.2069C44.3814 39.9137 44.2854 39.631 44.1375 39.375ZM14.25 18C14.25 16.0716 14.8219 14.1866 15.8932 12.5832C16.9646 10.9798 18.4873 9.73013 20.2689 8.99217C22.0505 8.25422 24.0109 8.06114 25.9022 8.43734C27.7935 8.81355 29.5308 9.74215 30.8943 11.1057C32.2579 12.4693 33.1865 14.2066 33.5627 16.0979C33.9389 17.9892 33.7458 19.9496 33.0079 21.7312C32.2699 23.5127 31.0202 25.0355 29.4168 26.1068C27.8135 27.1782 25.9284 27.75 24 27.75C21.4142 27.75 18.9342 26.7228 17.1057 24.8943C15.2773 23.0658 14.25 20.5859 14.25 18Z" fill="white"/>
</svg>
