<svg width="56" height="56" viewBox="0 0 56 56" fill="none" xmlns="http://www.w3.org/2000/svg">
<circle cx="28" cy="28" r="28" fill="#E0E9EE"/>
<path d="M37.9734 35.6874C36.688 33.4315 34.6809 31.6737 32.2752 30.6971C33.4716 29.7998 34.3553 28.5489 34.8011 27.1215C35.247 25.6941 35.2325 24.1626 34.7596 22.7439C34.2867 21.3253 33.3794 20.0914 32.1663 19.217C30.9531 18.3426 29.4956 17.8721 28.0002 17.8721C26.5048 17.8721 25.0473 18.3426 23.8342 19.217C22.621 20.0914 21.7137 21.3253 21.2409 22.7439C20.768 24.1626 20.7534 25.6941 21.1993 27.1215C21.6452 28.5489 22.5289 29.7998 23.7252 30.6971C21.3195 31.6737 19.3125 33.4315 18.0271 35.6874C17.9475 35.8154 17.8944 35.9582 17.871 36.1072C17.8476 36.2562 17.8545 36.4084 17.8911 36.5547C17.9277 36.701 17.9934 36.8384 18.0842 36.9588C18.175 37.0792 18.289 37.1802 18.4196 37.2556C18.5502 37.3311 18.6946 37.3795 18.8443 37.398C18.994 37.4165 19.1458 37.4047 19.2909 37.3634C19.4359 37.322 19.5711 37.252 19.6885 37.1573C19.8059 37.0626 19.9031 36.9453 19.9743 36.8124C21.673 33.8761 24.673 32.1249 28.0002 32.1249C31.3274 32.1249 34.3274 33.8771 36.0262 36.8124C36.1804 37.0604 36.425 37.2387 36.7083 37.3096C36.9916 37.3805 37.2914 37.3385 37.5443 37.1924C37.7972 37.0463 37.9833 36.8076 38.0634 36.5267C38.1434 36.2458 38.1112 35.9449 37.9734 35.6874ZM23.1252 24.9999C23.1252 24.0357 23.4111 23.0932 23.9468 22.2915C24.4825 21.4898 25.2439 20.8649 26.1346 20.496C27.0254 20.127 28.0056 20.0305 28.9513 20.2186C29.8969 20.4067 30.7656 20.871 31.4474 21.5527C32.1292 22.2345 32.5935 23.1032 32.7816 24.0488C32.9697 24.9945 32.8731 25.9747 32.5041 26.8655C32.1352 27.7563 31.5103 28.5176 30.7086 29.0533C29.9069 29.589 28.9644 29.8749 28.0002 29.8749C26.7078 29.8734 25.4686 29.3593 24.5547 28.4454C23.6408 27.5315 23.1267 26.2924 23.1252 24.9999Z" fill="#00171F"/>
</svg>
